<svg width="70" height="70" viewBox="0 0 70 70" fill="none" xmlns="http://www.w3.org/2000/svg">
<rect width="70" height="70" rx="10" fill="#F1F5F5"/>
<path d="M47.1875 23.5C48.7109 23.5 50 24.7891 50 26.3125C50 27.25 49.5312 28.0703 48.8281 28.5977L36.1133 38.1484C35.4102 38.6758 34.5312 38.6758 33.8281 38.1484L21.1133 28.5977C20.4102 28.0703 20 27.25 20 26.3125C20 24.7891 21.2305 23.5 22.8125 23.5H47.1875ZM32.7148 39.6719C34.0625 40.668 35.8789 40.668 37.2266 39.6719L50 30.0625V42.25C50 44.3594 48.3008 46 46.25 46H23.75C21.6406 46 20 44.3594 20 42.25V30.0625L32.7148 39.6719Z" fill="#061951"/>
</svg>
