<svg width="70" height="70" viewBox="0 0 70 70" fill="none" xmlns="http://www.w3.org/2000/svg">
<rect width="70" height="70" rx="10" fill="#F1F5F5"/>
<path d="M36.6406 30.4141C36.0547 29.9453 35.1758 30.0625 34.6484 30.6484C34.1797 31.2344 34.2383 32.1133 34.8828 32.6406C35.5273 33.168 35.9375 33.9297 35.9375 34.75C35.9375 35.6289 35.5273 36.3906 34.8828 36.918C34.2383 37.4453 34.1797 38.3242 34.6484 38.9102C34.9414 39.2617 35.3516 39.4375 35.7617 39.4375C36.0547 39.4375 36.4062 39.3203 36.6406 39.1445C37.9883 38.0312 38.75 36.4492 38.75 34.75C38.75 33.1094 37.9883 31.5273 36.6406 30.4141ZM40.2148 26.0781C39.5703 25.5508 38.6914 25.668 38.2227 26.2539C37.6953 26.8398 37.8125 27.7188 38.3984 28.2461C40.3906 29.8867 41.5039 32.2305 41.5039 34.75C41.5039 37.2109 40.3906 39.6133 38.3984 41.2539C37.8125 41.7227 37.6953 42.6016 38.2227 43.1875C38.5156 43.5391 38.8672 43.7148 39.2773 43.7148C39.6289 43.7148 39.9219 43.5977 40.2148 43.4219C42.8516 41.3125 44.375 38.1484 44.375 34.75C44.375 31.3516 42.8516 28.2461 40.2148 26.0781ZM43.7891 21.7422C43.2031 21.2148 42.3242 21.332 41.7969 21.918C41.3281 22.5039 41.3867 23.3828 41.9727 23.9102C45.2539 26.6055 47.1875 30.5312 47.1875 34.75C47.1875 38.9102 45.2539 42.8945 41.9727 45.5898C41.3867 46.1172 41.3281 46.9961 41.7969 47.582C42.0898 47.9336 42.5 48.1094 42.9102 48.1094C43.2031 48.1094 43.4961 47.9922 43.7891 47.7578C47.7148 44.5938 50 39.8477 50 34.75C50 29.5938 47.7148 24.9648 43.7891 21.7422ZM28.8477 30.0039C29.4336 30.0625 30.0781 29.7109 30.3125 29.125L32.2461 24.2031C32.5391 23.5586 32.2461 22.7969 31.7188 22.4453L27.7344 19.9844C27.207 19.6328 26.4453 19.75 25.9766 20.2188C17.9492 28.2461 17.9492 41.3125 25.9766 49.3398C26.4453 49.8086 27.207 49.9258 27.7344 49.5742L31.7188 47.1133C32.2461 46.7617 32.5391 46 32.2461 45.3555L30.3125 40.4336C30.0781 39.8477 29.4336 39.4961 28.8477 39.5547L25.7422 39.8477C24.5703 36.5664 24.5703 32.9922 25.7422 29.7109L28.8477 30.0039Z" fill="#061951"/>
</svg>
