<svg width="69" height="70" viewBox="0 0 69 70" fill="none" xmlns="http://www.w3.org/2000/svg">
<rect width="69" height="70" rx="10" fill="#F1F5F5"/>
<path d="M32.8438 49.0469C29.7969 45.2383 23 36.1562 23 31C23 24.7891 27.9805 19.75 34.25 19.75C40.4609 19.75 45.5 24.7891 45.5 31C45.5 36.1562 38.6445 45.2383 35.5977 49.0469C34.8945 49.9258 33.5469 49.9258 32.8438 49.0469ZM34.25 34.75C36.3008 34.75 38 33.1094 38 31C38 28.9492 36.3008 27.25 34.25 27.25C32.1406 27.25 30.5 28.9492 30.5 31C30.5 33.1094 32.1406 34.75 34.25 34.75Z" fill="#061951"/>
</svg>
