<svg width="56" height="60" viewBox="0 0 56 60" fill="none" xmlns="http://www.w3.org/2000/svg">
<rect width="55.6667" height="60" fill="white"/>
<path d="M10.54 21.4712V34.8916H9.40072H8.26139V24.9096C8.26139 15.4539 8.26953 14.9189 8.41602 14.5855C8.54622 14.261 8.92871 13.8312 9.27051 13.6207C9.40885 13.533 9.40072 13.4891 9.18913 12.919C9.06706 12.5769 8.96126 12.2874 8.94499 12.2786C8.93685 12.2611 8.7334 12.3576 8.50553 12.4891C8.00098 12.7874 7.53711 13.3137 7.22786 13.9452L7 14.4101V27.6551V40.9001L7.26855 41.4878C7.5778 42.172 8.08236 42.6983 8.74967 43.0403L9.19727 43.2684L15.3252 43.2947L21.445 43.3123V45.6718V48.0226L20.2731 48.0664C19.1989 48.1103 19.0524 48.1366 18.6455 48.3471C18.3932 48.4787 18.0677 48.7418 17.9131 48.9436C17.4574 49.5137 17.376 49.8997 17.376 51.5312V52.9609H27.7926H38.2093V51.5312C38.2093 49.8997 38.1279 49.5137 37.6722 48.9436C37.5176 48.7418 37.1921 48.4787 36.9398 48.3471C36.5329 48.1366 36.3864 48.1103 35.3122 48.0664L34.1403 48.0226V45.6718V43.3123L40.2682 43.2947L46.388 43.2684L46.8356 43.0403C47.5029 42.6983 48.0075 42.172 48.3167 41.4878L48.5853 40.9001V27.699V14.4978L48.3249 13.9189C48.0075 13.226 47.4948 12.6909 46.8519 12.3663L46.388 12.1295L36.0365 12.1032L25.6768 12.0857V12.7874V13.4891H35.833C45.5335 13.4891 45.9974 13.4979 46.3066 13.6558C46.4857 13.7435 46.7298 13.9277 46.8519 14.068C47.3483 14.6469 47.3239 14.0329 47.3239 24.9359V34.8916H36.5003H25.6768V25.2079V15.5241L24.1712 12.8137C23.3411 11.3313 22.6331 10.1033 22.5924 10.0858C22.5518 10.0682 21.8356 11.2787 21.0055 12.7786L19.4919 15.489V25.1903V34.8916H18.5153H17.5387V21.4712V8.05076H14.0394H10.54V21.4712ZM16.2367 22.1729V34.8916H14.0394H11.8421V34.146V33.4004H13.307H14.7718V32.6987V31.997H13.307H11.8421V31.383V30.769H12.6559H13.4697V30.0673V29.3656H12.6559H11.8421V28.7515V28.1375H13.307H14.7718V27.4358V26.7341H13.307H11.8421V26.1201V25.5061H12.6559H13.4697V24.8044V24.1026H12.6559H11.8421V23.4886V22.8746H13.307H14.7718V22.1729V21.4712H13.307H11.8421V20.8572V20.2432H12.6559H13.4697V19.5415V18.8397H12.6559H11.8421V18.2257V17.6117H13.307H14.7718V16.91V16.2083H13.307H11.8421V15.5943V14.9803H12.6559H13.4697V14.2785V13.5768H12.6559H11.8421V12.9628V12.3488H13.307H14.7718V11.6471V10.9454H13.307H11.8421V10.1998V9.4542H14.0394H16.2367V22.1729ZM23.3737 14.147L24.1143 15.4978L23.3411 15.989L22.5762 16.489L21.8031 15.989L21.0381 15.4978L21.2415 15.1294C21.3555 14.9276 21.6891 14.3136 21.9902 13.7698C22.2913 13.2347 22.5599 12.7874 22.5843 12.7874C22.6087 12.7874 22.9587 13.4014 23.3737 14.147ZM23.2923 17.6907C23.6829 17.4363 24.0898 17.1731 24.1956 17.103L24.3747 16.9802V24.1816V31.383H22.5843H20.7939V24.1904V17.0065L21.681 17.5766L22.5762 18.1555L23.2923 17.6907ZM24.3747 33.839V34.8916H22.5843H20.7939V33.839V32.7864H22.5843H24.3747V33.839ZM47.3239 38.3739C47.3239 40.7159 47.2751 40.9352 46.7461 41.4176C46.1683 41.9439 47.5111 41.9088 27.7926 41.9088C8.07422 41.9088 9.41699 41.9439 8.83919 41.4176C8.31022 40.9352 8.26139 40.7159 8.26139 38.3739V36.2951H27.7926H47.3239V38.3739ZM32.8382 45.6806V48.0489H27.7926H22.7471V45.6806V43.3123H27.7926H32.8382V45.6806ZM36.4434 49.6628C36.7852 49.9172 36.9072 50.2418 36.9072 50.9435V51.5575H27.7926H18.6781V50.9435C18.6781 50.0927 18.9141 49.6716 19.4512 49.5137C19.5407 49.4874 23.3493 49.4786 27.9147 49.4874C35.9225 49.4962 36.2236 49.505 36.4434 49.6628Z" fill="#061951"/>
<path d="M21.9336 21.693V23.9297H22.5846H23.2357V21.693V19.4562H22.5846H21.9336V21.693Z" fill="#061951"/>
<path d="M21.9336 25.8569V26.5586H22.5846H23.2357V25.8569V25.1552H22.5846H21.9336V25.8569Z" fill="#061951"/>
<path d="M21.9336 28.9261V30.0664H22.5846H23.2357V28.9261V27.7858H22.5846H21.9336V28.9261Z" fill="#061951"/>
<path d="M24.6992 39.103V39.8047H25.3503H26.0013V39.103V38.4012H25.3503H24.6992V39.103Z" fill="#061951"/>
<path d="M27.1406 39.103V39.8047H27.7917H28.4427V39.103V38.4012H27.7917H27.1406V39.103Z" fill="#061951"/>
<path d="M29.582 39.103V39.8047H30.2331H30.8841V39.103V38.4012H30.2331H29.582V39.103Z" fill="#061951"/>
<path d="M26.8164 15.4193V16.121H27.4674H28.1185V24.1908V32.2606H27.4674H26.8164V32.9623V33.6641H28.7288H30.6413V32.9623V32.2606H30.0309H29.4206V24.1908V16.121H30.0309H30.6413V15.4193V14.7176H28.7288H26.8164V15.4193Z" fill="#061951"/>
<path d="M31.8613 18.4861V22.2578H39.0228H46.1842V18.4861V14.7143H39.0228H31.8613V18.4861ZM44.8822 18.4861V20.8544H39.0228H33.1634V18.4861V16.1177H39.0228H44.8822V18.4861Z" fill="#061951"/>
<path d="M31.8613 25.9424V28.3984H35.1572H38.4531V25.9424V23.4864H35.1572H31.8613V25.9424ZM37.151 25.9424V26.995H35.1572H33.1634V25.9424V24.8898H35.1572H37.151V25.9424Z" fill="#061951"/>
<path d="M39.5938 25.9424V28.3984H42.8896H46.1855V25.9424V23.4864H42.8896H39.5938V25.9424ZM44.8835 25.9424V26.995H42.8896H40.8958V25.9424V24.8898H42.8896H44.8835V25.9424Z" fill="#061951"/>
<path d="M32.5117 30.7709V31.4727H33.9766H35.4414V30.7709V30.0692H33.9766H32.5117V30.7709Z" fill="#061951"/>
<path d="M36.582 30.767V31.4688H37.2331H37.8841V30.767V30.0653H37.2331H36.582V30.767Z" fill="#061951"/>
<path d="M40.2441 30.767V31.4688H41.709H43.1738V30.767V30.0653H41.709H40.2441V30.767Z" fill="#061951"/>
<path d="M44.3125 30.767V31.4688H44.9635H45.6146V30.767V30.0653H44.9635H44.3125V30.767Z" fill="#061951"/>
</svg>
