<svg width="80" height="80" viewBox="0 0 80 80" fill="none" xmlns="http://www.w3.org/2000/svg">
<rect width="80" height="80" rx="10" fill="white"/>
<path d="M13.8808 12.0466C12.5796 12.5154 11.4895 13.5 10.7979 14.8129C9.94224 16.4305 10.0009 15.0942 10.0009 34.7282C10.0009 54.3621 9.94224 53.0259 10.7979 54.6435C11.5012 55.9797 12.6031 56.9527 13.9628 57.4215C14.5489 57.6208 14.9943 57.6442 18.8039 57.6442H23.0003L23.3051 57.3746C23.5395 57.1871 23.6333 56.9644 23.6802 56.5776C23.7388 56.097 23.7036 55.9915 23.3871 55.6398L23.0355 55.2413L18.886 55.1827C14.8302 55.1241 14.7364 55.1241 14.3145 54.8545C13.7167 54.4911 13.1892 53.8464 12.8258 53.0727L12.521 52.428L12.4859 41.14L12.4624 29.8636H37.8987H63.3349V35.7831V41.7026H62.8074C62.1745 41.7026 61.6587 41.9019 61.1429 42.3356L60.7678 42.6521L59.7363 42.2418L58.7048 41.8316L58.6345 41.2572C58.529 40.4718 58.2359 39.8975 57.685 39.4286C57.0169 38.8542 56.4659 38.737 54.5905 38.7956C53.0549 38.8308 52.926 38.8542 52.3985 39.159C51.6717 39.5927 51.1443 40.4718 51.1443 41.2689C51.1443 41.7612 51.1091 41.8433 50.8278 41.9605C50.6402 42.0308 50.1714 42.2301 49.7728 42.4177C49.0695 42.7341 49.0461 42.7341 48.8468 42.5114C48.2138 41.8081 46.7017 41.5034 45.7757 41.8785C45.2599 42.1012 43.2438 44.047 42.939 44.6331C42.4467 45.606 42.5639 46.7313 43.2555 47.6456L43.6541 48.173L43.2438 49.1225L42.8335 50.0837L42.2592 50.154C41.4855 50.2595 40.9112 50.5408 40.4306 51.08C39.8914 51.6779 39.7741 52.1584 39.7741 53.7995V55.1827H36.2576C32.366 55.1827 32.2136 55.2061 31.8502 55.8977C31.6275 56.3314 31.7096 56.9058 32.0261 57.316L32.2488 57.5856L37.547 57.6442L42.8335 57.7028L43.2438 58.7226L43.6658 59.7542L43.3376 60.1293C42.8687 60.6919 42.7046 61.1842 42.7046 61.9813C42.7046 62.9659 42.939 63.3527 44.3691 64.7476C45.4826 65.8378 45.635 65.955 46.2328 66.0839C47.1003 66.2715 47.8973 66.0956 48.6241 65.5447C49.1398 65.1462 49.1516 65.1344 49.5267 65.3337C49.7377 65.4392 50.1714 65.615 50.4878 65.7323L51.0857 65.9315L51.156 66.5879C51.2498 67.4202 51.7069 68.2173 52.3399 68.6393C52.8088 68.944 52.8908 68.9557 54.696 68.9909C56.8645 69.0378 57.3334 68.9206 57.9546 68.229C58.4352 67.6781 58.6462 67.1506 58.6462 66.5293V66.0253L59.7129 65.5682L60.7796 65.1227L61.0843 65.4158C61.6587 65.9432 62.1627 66.1308 62.995 66.1308C63.6045 66.1308 63.8624 66.0722 64.2844 65.826C64.8939 65.4627 66.617 63.7278 66.8866 63.2004C67.3672 62.2626 67.2265 61.0318 66.5584 60.2465L66.1599 59.7893L66.5936 58.7109L67.0155 57.6442H67.5547C68.5863 57.6325 69.6178 56.8823 69.8991 55.9211C69.9812 55.6398 70.0163 54.7724 69.9929 53.6471C69.9577 51.842 69.9577 51.8185 69.6178 51.3262C69.1723 50.6932 68.4339 50.2595 67.6368 50.1775L67.0155 50.1189L66.5936 49.1225L66.1716 48.1262L66.5701 47.6104C67.0507 46.9774 67.25 46.2858 67.1679 45.5474C67.0859 44.8675 66.8983 44.4924 66.2771 43.7891L65.7965 43.2499V30.3677C65.7965 19.4664 65.7613 17.3682 65.6207 16.6767C65.2104 14.7308 64.0148 13.1015 62.4206 12.3162L61.5298 11.8707L38.0276 11.8473C14.9357 11.8238 14.502 11.8238 13.8808 12.0466ZM61.4243 14.6253C62.1276 15.0239 62.4909 15.4576 62.9481 16.4422L63.2763 17.1455L63.3115 22.2679L63.3466 27.4021H37.8987H12.4507L12.4859 22.2093L12.521 17.0283L12.861 16.3016C13.2243 15.5162 13.9628 14.7191 14.6075 14.4495C14.924 14.3089 18.6046 14.2854 37.8987 14.2737H60.8147L61.4243 14.6253ZM56.1846 42.2887C56.2667 43.7422 56.2667 43.7422 58.0015 44.2814C58.4586 44.4221 59.2088 44.7503 59.6777 44.9964C60.9437 45.6763 61.3305 45.6411 62.2682 44.7855L62.995 44.129L63.8741 44.9964L64.7415 45.8521L64.1672 46.4499C63.1474 47.4932 63.1239 47.7393 63.8507 49.1811C64.132 49.7555 64.4836 50.6112 64.6243 51.0918C65.0111 52.3577 65.2104 52.5335 66.4763 52.6039L67.4961 52.6625L67.5313 53.9167L67.5665 55.1827H66.6522C65.2338 55.1827 65.0463 55.3585 64.554 56.9878C64.4368 57.3746 64.1203 58.1248 63.8389 58.664C63.1239 60.0472 63.1474 60.2816 64.0499 61.2311L64.7767 61.9696L63.9796 62.8018C63.5342 63.2472 63.1005 63.6223 63.0067 63.6223C62.9129 63.6223 62.5261 63.3293 62.151 62.9776C61.307 62.1806 60.9554 62.1337 59.877 62.7315C59.4902 62.9542 58.611 63.3293 57.9429 63.552C56.3253 64.1029 56.255 64.185 56.1963 65.5095L56.1612 66.5645L54.907 66.5293L53.6644 66.4942L53.6058 65.4744C53.5355 64.2084 53.3597 64.0092 52.1054 63.6341C51.6366 63.4934 50.7926 63.1417 50.2417 62.8604C48.7999 62.1102 48.5186 62.1337 47.5808 63.0363L46.8541 63.7278L46.0101 62.8839C45.5413 62.415 45.1662 61.9813 45.1662 61.9227C45.1662 61.8641 45.4592 61.5124 45.8226 61.149C46.6783 60.2934 46.7017 59.9534 46.0101 58.6992C45.7523 58.2186 45.4006 57.3629 45.2248 56.8003C44.7911 55.4171 44.6152 55.2647 43.3141 55.1827L42.2943 55.1241V53.8933V52.6625L43.3024 52.6273C44.5918 52.5804 44.8028 52.4163 45.1662 51.1855C45.3068 50.7049 45.6585 49.8493 45.9398 49.2866C46.6548 47.8448 46.6431 47.5518 45.8109 46.6492C45.4592 46.2624 45.1662 45.899 45.1662 45.8404C45.1662 45.7818 45.5295 45.3715 45.975 44.9378L46.7955 44.129L47.4988 44.7855C48.5069 45.7115 48.7061 45.7349 50.1596 45.0082C50.7926 44.68 51.6952 44.3049 52.1523 44.1759C53.3245 43.836 53.5355 43.5781 53.5824 42.4294C53.6058 41.9371 53.641 41.4565 53.6644 41.3744C53.7113 41.2689 54.0278 41.2338 54.9187 41.2572L56.126 41.2924L56.1846 42.2887Z" fill="#061951"/>
<path d="M19.4839 17.123C18.218 17.6622 17.4209 18.5765 17.081 19.8894C16.6238 21.718 17.5029 23.6403 19.2026 24.4843C19.7066 24.7305 19.9528 24.7656 20.9609 24.7656C21.9455 24.7656 22.2268 24.7187 22.6722 24.496C23.5396 24.074 24.1375 23.4762 24.5594 22.6205C24.9111 21.9172 24.9463 21.7414 24.9463 20.8388C24.9345 20.0652 24.8759 19.7135 24.6767 19.2681C24.2781 18.389 23.692 17.756 22.8715 17.3223C22.2268 16.9706 22.0041 16.9238 21.1367 16.8886C20.2927 16.8534 20.0348 16.8886 19.4839 17.123ZM21.7345 19.5846C21.9572 19.7253 22.2268 20.0535 22.3557 20.2996C22.6253 20.8623 22.4847 21.4366 21.9572 21.9524C21.6407 22.2572 21.5001 22.3041 20.9609 22.3041C20.4217 22.3041 20.281 22.2572 19.9762 21.9641C19.5425 21.5421 19.355 20.9678 19.4956 20.4755C19.6246 20.03 19.8004 19.8073 20.2576 19.526C20.7264 19.2447 21.2539 19.2564 21.7345 19.5846Z" fill="#061951"/>
<path d="M29.9265 17.0494C28.8715 17.4128 28.1565 18.0692 27.5704 19.1945C27.3359 19.6399 27.3008 19.8978 27.2891 20.8355C27.2891 22.1835 27.5352 22.7931 28.4612 23.7191C29.3052 24.563 30.1257 24.8561 31.4503 24.7975C32.6225 24.7389 33.3375 24.4341 34.1229 23.637C36.5961 21.1286 34.7676 16.8267 31.2393 16.8501C30.8056 16.8618 30.2195 16.9439 29.9265 17.0494ZM31.9309 19.4875C32.6928 19.8861 32.9976 21.0699 32.4935 21.7029C31.7551 22.6407 30.3719 22.5234 29.8796 21.4919C29.6451 20.9996 29.6451 20.6831 29.8561 20.2729C30.3016 19.4172 31.1572 19.089 31.9309 19.4875Z" fill="#061951"/>
<path d="M43.9134 17.0171C42.7998 17.3688 41.8269 18.2948 41.4049 19.4201C41.0767 20.3109 41.1236 21.8113 41.5221 22.5967C41.8855 23.3117 42.6357 24.0736 43.3507 24.4487L43.9368 24.7652L50.1493 24.8004C57.0652 24.8355 56.9948 24.8472 58.085 24.0502C59.2103 23.2179 59.8667 21.5886 59.6088 20.2289C59.3509 18.8457 58.5656 17.7907 57.3582 17.2164L56.7135 16.9116L50.5596 16.8882C45.7419 16.8764 44.3002 16.8999 43.9134 17.0171ZM56.3033 19.4904C57.4286 20.0648 57.4286 21.612 56.3033 22.1864C56.0219 22.3388 55.0842 22.3622 50.3838 22.3622C44.2298 22.3622 44.3353 22.374 43.8782 21.6238C43.421 20.8736 43.7258 19.8186 44.4994 19.4904C45.0738 19.2325 55.8109 19.2325 56.3033 19.4904Z" fill="#061951"/>
<path d="M53.3718 46.8019C52.0824 47.0949 50.7461 47.8334 49.7967 48.7946C46.749 51.8305 46.9717 56.7654 50.289 59.5317C51.0274 60.153 52.5395 60.8797 53.4656 61.0555C54.4619 61.2431 56.2788 61.1376 57.2517 60.8211C59.2678 60.1881 61.0496 58.4181 61.7763 56.3551C62.1748 55.1946 62.2803 53.366 61.999 52.2525C61.3778 49.7909 59.5257 47.7748 57.1814 47.0246C55.9975 46.6495 54.4502 46.5557 53.3718 46.8019ZM55.7279 49.2048C57.24 49.4861 58.5059 50.459 59.1975 51.8774C59.6195 52.7213 59.6429 52.8268 59.6429 53.8818C59.6312 55.4642 59.3499 56.1441 58.248 57.246C57.1462 58.3478 56.4663 58.6291 54.8956 58.6408C53.8875 58.6408 53.7117 58.6057 52.9967 58.2657C50.9923 57.3163 49.8318 55.2181 50.1952 53.2137C50.5703 51.2092 51.9417 49.744 53.8993 49.2517C54.6495 49.0642 54.9542 49.0642 55.7279 49.2048Z" fill="#061951"/>
<path d="M28.2273 36.697C27.9459 36.9315 27.7936 37.459 26.7034 42.0539C26.0236 44.8554 25.4727 47.3287 25.4727 47.5397C25.4727 48.7001 27.395 49.0635 27.817 47.9851C27.8756 47.8327 28.45 45.4767 29.1064 42.7455C30.3841 37.4121 30.4075 37.1659 29.8683 36.6853C29.4463 36.3337 28.6493 36.3337 28.2273 36.697Z" fill="#061951"/>
<path d="M20.8315 37.3547C20.5033 37.4954 17.3384 40.9533 16.9047 41.6449C16.5882 42.1607 16.5999 43.0984 16.9398 43.5321C17.6197 44.3995 20.3626 47.412 20.6439 47.5878C21.1597 47.9278 21.6872 47.8574 22.1443 47.4003C22.578 46.9666 22.6601 46.486 22.4022 46.0054C22.3318 45.8647 21.6403 45.0559 20.8783 44.2002C20.1164 43.3563 19.4952 42.6061 19.4952 42.5475C19.4952 42.4889 20.1047 41.7621 20.8549 40.9299C22.3905 39.2068 22.6132 38.8551 22.496 38.2808C22.367 37.554 21.4996 37.0734 20.8315 37.3547Z" fill="#061951"/>
<path d="M33.9599 37.3534C33.5379 37.541 33.2097 38.0567 33.2097 38.549C33.2097 39.0296 33.1511 38.9593 35.5892 41.6905C35.9526 42.1125 36.2573 42.4993 36.2573 42.5462C36.2573 42.593 35.6361 43.3315 34.8742 44.1872C34.1005 45.0429 33.4207 45.8634 33.3504 46.0041C32.7877 47.0473 34.0185 48.2312 35.0383 47.6451C35.3313 47.481 38.5431 43.9059 38.8479 43.4019C39.1057 43.0033 39.1409 42.1242 38.9182 41.7491C38.7658 41.4678 35.765 38.0684 35.2844 37.623C34.968 37.33 34.335 37.201 33.9599 37.3534Z" fill="#061951"/>
<path d="M27.1838 55.3588C26.6914 55.6167 26.5391 55.8863 26.5273 56.4489C26.5273 57.1757 26.9962 57.6445 27.7464 57.6445C28.4732 57.6445 28.8717 57.2929 28.9538 56.5779C29.0124 56.109 28.9772 55.9918 28.6841 55.6636C28.2739 55.2064 27.6761 55.0892 27.1838 55.3588Z" fill="#061951"/>
</svg>
