<svg width="38" height="38" viewBox="0 0 38 38" fill="none" xmlns="http://www.w3.org/2000/svg">
<rect x="0.439453" y="0.390625" width="36.7385" height="37.2198" rx="7.40659" fill="white"/>
<path d="M18.8086 14.8415C20.9959 14.8415 22.8012 16.6468 22.8012 18.8341C22.8012 21.056 20.9959 22.8267 18.8086 22.8267C16.5866 22.8267 14.816 21.056 14.816 18.8341C14.816 16.6468 16.5866 14.8415 18.8086 14.8415ZM18.8086 21.4379C20.232 21.4379 21.3778 20.2922 21.3778 18.8341C21.3778 17.4106 20.232 16.2649 18.8086 16.2649C17.3504 16.2649 16.2047 17.4106 16.2047 18.8341C16.2047 20.2922 17.3851 21.4379 18.8086 21.4379ZM23.8775 14.7026C23.8775 14.1818 23.4609 13.7652 22.9401 13.7652C22.4193 13.7652 22.0027 14.1818 22.0027 14.7026C22.0027 15.2234 22.4193 15.64 22.9401 15.64C23.4609 15.64 23.8775 15.2234 23.8775 14.7026ZM26.5161 15.64C26.5855 16.9246 26.5855 20.7783 26.5161 22.0629C26.4466 23.3127 26.1689 24.389 25.2662 25.3264C24.3635 26.2291 23.2525 26.5068 22.0027 26.5763C20.7181 26.6457 16.8644 26.6457 15.5798 26.5763C14.3299 26.5068 13.2536 26.2291 12.3163 25.3264C11.4136 24.389 11.1358 23.3127 11.0664 22.0629C10.997 20.7783 10.997 16.9246 11.0664 15.64C11.1358 14.3901 11.4136 13.2791 12.3163 12.3764C13.2536 11.4738 14.3299 11.196 15.5798 11.1266C16.8644 11.0571 20.7181 11.0571 22.0027 11.1266C23.2525 11.196 24.3635 11.4738 25.2662 12.3764C26.1689 13.2791 26.4466 14.3901 26.5161 15.64ZM24.8496 23.4169C25.2662 22.4101 25.1621 19.9798 25.1621 18.8341C25.1621 17.7231 25.2662 15.2928 24.8496 14.2512C24.5718 13.5916 24.0511 13.0361 23.3914 12.7931C22.3499 12.3764 19.9196 12.4806 18.8086 12.4806C17.6629 12.4806 15.2326 12.3764 14.2258 12.7931C13.5314 13.0708 13.0106 13.5916 12.7329 14.2512C12.3163 15.2928 12.4204 17.7231 12.4204 18.8341C12.4204 19.9798 12.3163 22.4101 12.7329 23.4169C13.0106 24.1113 13.5314 24.632 14.2258 24.9098C15.2326 25.3264 17.6629 25.2223 18.8086 25.2223C19.9196 25.2223 22.3499 25.3264 23.3914 24.9098C24.0511 24.632 24.6066 24.1113 24.8496 23.4169Z" fill="#061951"/>
</svg>
