<svg width="37" height="38" viewBox="0 0 37 38" fill="none" xmlns="http://www.w3.org/2000/svg">
<rect y="0.390625" width="36.7385" height="37.2198" rx="7.40659" fill="white"/>
<path d="M14.0641 25.5H10.8352V15.1192H14.0641V25.5ZM12.4323 13.7305C11.4255 13.7305 10.5922 12.8625 10.5922 11.821C10.5922 10.3975 12.1198 9.49482 13.3697 10.2239C13.9599 10.5364 14.3071 11.1613 14.3071 11.821C14.3071 12.8625 13.4738 13.7305 12.4323 13.7305ZM26.1113 25.5H22.9173V20.4658C22.9173 19.2507 22.8825 17.7231 21.216 17.7231C19.5496 17.7231 19.3065 19.0077 19.3065 20.3617V25.5H16.0777V15.1192H19.1677V16.5427H19.2024C19.6537 15.7441 20.6953 14.8762 22.2576 14.8762C25.5211 14.8762 26.1461 17.0287 26.1461 19.8062V25.5H26.1113Z" fill="#061951"/>
</svg>
