<svg width="38" height="38" viewBox="0 0 38 38" fill="none" xmlns="http://www.w3.org/2000/svg">
<rect x="0.177734" y="0.390625" width="37.2571" height="37.2198" rx="7.40659" fill="white"/>
<path d="M25.8545 15.2234C25.8545 15.3969 25.8545 15.5358 25.8545 15.7094C25.8545 20.5353 22.209 26.0555 15.5084 26.0555C13.4253 26.0555 11.5158 25.4653 9.91873 24.4237C10.1965 24.4584 10.4742 24.4932 10.7867 24.4932C12.4879 24.4932 14.0502 23.903 15.3001 22.9308C13.703 22.8961 12.349 21.8546 11.8977 20.3964C12.1407 20.4311 12.349 20.4658 12.592 20.4658C12.9045 20.4658 13.2517 20.3964 13.5294 20.327C11.863 19.9798 10.6131 18.5216 10.6131 16.751V16.7162C11.0992 16.994 11.6894 17.1329 12.2796 17.1676C11.2727 16.5079 10.6478 15.3969 10.6478 14.1471C10.6478 13.4527 10.8214 12.8278 11.1339 12.307C12.9392 14.4943 15.6473 15.9524 18.6678 16.126C18.5983 15.8483 18.5636 15.5705 18.5636 15.2928C18.5636 13.2791 20.1954 11.6474 22.209 11.6474C23.2506 11.6474 24.188 12.064 24.8824 12.7931C25.6809 12.6195 26.4794 12.307 27.1738 11.8904C26.896 12.7583 26.3405 13.4527 25.5767 13.9041C26.3058 13.8346 27.0349 13.6263 27.6598 13.3486C27.1738 14.0776 26.5488 14.7026 25.8545 15.2234Z" fill="#061951"/>
</svg>
