<svg width="571" height="400" viewBox="0 0 571 400" fill="none" xmlns="http://www.w3.org/2000/svg">
<path d="M404.001 91.5V106.5L437.001 140.5V197.5L587.001 347.5" stroke="white" stroke-width="2" stroke-linecap="round" stroke-linejoin="round"/>
<path d="M5.50098 77.5L123.501 195.5H181.501L138.001 151L240.501 253.5H267.001M267.001 253.5L202.001 189V144.5L149.501 91.5M267.001 253.5H284.001L353.001 322.5M353.001 322.5V276.5L304.001 227.718M353.001 322.5L446.001 415.5M170.001 44.5L240.501 116V164.5L304.001 227.718M304.001 227.718V138.5L252.501 86.5" stroke="white" stroke-width="2" stroke-linecap="round" stroke-linejoin="round"/>
<path d="M495.501 413.5L433.501 351" stroke="white" stroke-width="2" stroke-linecap="round" stroke-linejoin="round"/>
<path d="M226.501 14.5H274.001L319.501 60V118.5L277.501 76.5L340.501 139.5V208L548.501 415.5" stroke="white" stroke-width="2" stroke-linecap="round" stroke-linejoin="round"/>
<path d="M422.001 265.5L549.001 392H589.001L609.001 413" stroke="white" stroke-width="2" stroke-linecap="round" stroke-linejoin="round"/>
<path d="M293.501 -10L371.001 67V161.5L557.501 348H611.501L660.501 396.5" stroke="white" stroke-width="2" stroke-linecap="round" stroke-linejoin="round"/>
<path d="M486.501 204L513.501 232H539.001L660.001 355.5" stroke="white" stroke-width="2" stroke-linecap="round" stroke-linejoin="round"/>
<path d="M351.501 13L383.501 44.5H417.501L462.501 89V132L494.001 163.5H517.001L639.001 285V243L578.001 183.5M578.001 183.5V153.25V123L529.751 74.75L481.501 26.5V-10M578.001 183.5L449.001 54M449.001 54V-4.5L444.501 -10M449.001 54L431.751 36.75L414.501 19.5H397.501L368.501 -10" stroke="white" stroke-width="2" stroke-linecap="round" stroke-linejoin="round"/>
<path d="M544.501 25.5L574.001 55.5H605.001M605.001 55.5L541.001 -10M605.001 55.5L634.001 84V143M634.001 143L591.501 101M634.001 143L662.001 171.5" stroke="white" stroke-width="2" stroke-linecap="round" stroke-linejoin="round"/>
<circle cx="5.00098" cy="78" r="5" fill="white"/>
<circle cx="137.001" cy="150" r="5" fill="white"/>
<circle cx="146.001" cy="88" r="5" fill="white"/>
<circle cx="169.001" cy="43" r="5" fill="white"/>
<circle cx="251.001" cy="85" r="5" fill="white"/>
<circle cx="276.001" cy="74" r="5" fill="white"/>
<circle cx="226.001" cy="15" r="5" fill="white"/>
<circle cx="433.001" cy="351" r="5" fill="white"/>
<circle cx="422.001" cy="266" r="5" fill="white"/>
<circle cx="486.001" cy="204" r="5" fill="white"/>
<circle cx="404.001" cy="92" r="5" fill="white"/>
<circle cx="351.001" cy="12" r="5" fill="white"/>
<circle cx="543.001" cy="24" r="5" fill="white"/>
</svg>
